Coordinates
version=1
nRows=32
nColumns=22
inDegrees=yes

Units are S.I. units (second, meters, Newtons, ...)
If the header above contains a line with 'inDegrees', this indicates whether rotational values are in degrees (yes) or radians (no).

endheader
time	pelvis_tilt	pelvis_list	pelvis_rotation	pelvis_tx	pelvis_ty	pelvis_tz	hip_flexion_r	hip_adduction_r	hip_rotation_r	knee_angle_r	ankle_angle_r	subtalar_angle_r	hip_flexion_l	hip_adduction_l	hip_rotation_l	knee_angle_l	ankle_angle_l	subtalar_angle_l	lumbar_extension	lumbar_bending	lumbar_rotation
      0.01000000	     -3.28044291	      4.09418577	    176.81696028	     -1.33712184	      1.02648787	     -0.17045474	     -0.48382394	      5.81133781	     -4.84250325	    -14.18493580	     10.76705762	     -1.46416070	     -0.78752368	     -2.60805880	     -5.66906618	    -15.12753517	     13.20133537	     -2.93744321	    -12.77290207	      3.76798333	      3.35337385
      0.02000000	     -3.27870019	      4.09569346	    176.81259575	     -1.33708552	      1.02648609	     -0.17047037	     -0.48237389	      5.81338374	     -4.84405220	    -14.17966406	     10.76504817	     -1.46332019	     -0.78393773	     -2.61061626	     -5.67058442	    -15.12741992	     13.20409876	     -2.94030563	    -12.77791115	      3.76886651	      3.35176277
      0.03000000	     -3.27439954	      4.11807931	    176.81123352	     -1.33706490	      1.02648078	     -0.17048863	     -0.48729375	      5.83999508	     -4.83733214	    -14.15996150	     10.73283484	     -1.45321337	     -0.77138653	     -2.63890984	     -5.68744304	    -15.14433909	     13.22834296	     -2.98296925	    -12.77583396	      3.79636786	      3.35144207
      0.04000000	     -3.27297135	      4.11782725	    176.80756525	     -1.33703567	      1.02648084	     -0.17050487	     -0.48586083	      5.84046260	     -4.83792448	    -14.15632998	     10.73335603	     -1.45308772	     -0.76967318	     -2.63895934	     -5.68742309	    -15.14213445	     13.22813362	     -2.98379528	    -12.77906072	      3.79651958	      3.35003518
      0.05000000	     -3.27148471	      4.11768979	    176.80315316	     -1.33701096	      1.02648084	     -0.17052455	     -0.48505826	      5.84106216	     -4.83814372	    -14.15182813	     10.73361053	     -1.45299646	     -0.76821833	     -2.63921906	     -5.68782175	    -15.14005924	     13.22762894	     -2.98470877	    -12.78131262	      3.79702510	      3.34777942
      0.06000000	     -3.26980679	      4.11757010	    176.79877440	     -1.33698998	      1.02648030	     -0.17054555	     -0.48469451	      5.84183696	     -4.83754752	    -14.14629133	     10.73347019	     -1.45292660	     -0.76697676	     -2.63967899	     -5.68912144	    -15.13778035	     13.22675145	     -2.98586981	    -12.78285635	      3.79802535	      3.34452343
      0.07000000	     -3.26692589	      4.11872691	    176.79551116	     -1.33699370	      1.02647940	     -0.17056695	     -0.48924831	      5.84500120	     -4.82906508	    -14.13328087	     10.72975561	     -1.45276517	     -0.76678077	     -2.64232543	     -5.69798969	    -15.13285816	     13.22231908	     -2.99115418	    -12.77765495	      3.80166750	      3.33418809
      0.08000000	     -3.26614092	      4.11830380	    176.79300771	     -1.33697042	      1.02648058	     -0.17058742	     -0.48773792	      5.84571300	     -4.82853430	    -14.13134675	     10.72928945	     -1.45274978	     -0.76561937	     -2.64260059	     -5.69814412	    -15.13212516	     13.22218418	     -2.99173104	    -12.78139987	      3.80240087	      3.33326646
      0.09000000	     -3.26541152	      4.11801578	    176.78969403	     -1.33695366	      1.02648007	     -0.17060809	     -0.48662045	      5.84624575	     -4.82748141	    -14.12988646	     10.72856405	     -1.45272011	     -0.76512369	     -2.64305818	     -5.69909678	    -15.13147414	     13.22202469	     -2.99238219	    -12.78422231	      3.80397939	      3.33091956
      0.10000000	     -3.26463912	      4.11796991	    176.78696089	     -1.33693903	      1.02647879	     -0.17062791	     -0.48537753	      5.84737292	     -4.82517856	    -14.12918660	     10.72732865	     -1.45267350	     -0.76513882	     -2.64406589	     -5.70203710	    -15.12993028	     13.22199247	     -2.99336066	    -12.78692037	      3.80641547	      3.32678192
      0.11000000	     -3.26440672	      4.11694431	    176.78696821	     -1.33693682	      1.02647552	     -0.17064793	     -0.48512790	      5.84735884	     -4.82507126	    -14.12908054	     10.72728302	     -1.45267192	     -0.76550804	     -2.64466400	     -5.70215969	    -15.12998374	     13.22200478	     -2.99340651	    -12.78710739	      3.80690867	      3.32662019
      0.12000000	     -3.26314583	      4.11654733	    176.78487965	     -1.33692259	      1.02647269	     -0.17066717	     -0.48311516	      5.84790884	     -4.82418741	    -14.12825882	     10.72704546	     -1.45275780	     -0.76505737	     -2.64556061	     -5.70438685	    -15.12779261	     13.22237447	     -2.99390998	    -12.79087273	      3.80935697	      3.32323808
      0.13000000	     -3.26280599	      4.11535223	    176.78491273	     -1.33692629	      1.02646742	     -0.17068931	     -0.48296109	      5.84817854	     -4.82414248	    -14.12826964	     10.72702789	     -1.45276651	     -0.76543404	     -2.64599311	     -5.70450601	    -15.12787211	     13.22239674	     -2.99395054	    -12.79107454	      3.80990103	      3.32307195
      0.14000000	     -3.26232794	      4.11412956	    176.78491066	     -1.33693194	      1.02646216	     -0.17071275	     -0.48281657	      5.84846350	     -4.82411863	    -14.12827560	     10.72703611	     -1.45278739	     -0.76567646	     -2.64641595	     -5.70463903	    -15.12784351	     13.22243263	     -2.99399509	    -12.79150964	      3.81051611	      3.32284859
      0.15000000	     -3.26172533	      4.11286840	    176.78492853	     -1.33693992	      1.02645670	     -0.17073756	     -0.48267792	      5.84879321	     -4.82410565	    -14.12828731	     10.72707002	     -1.45282136	     -0.76582006	     -2.64681721	     -5.70477896	    -15.12774571	     13.22247663	     -2.99404358	    -12.79214497	      3.81118673	      3.32258561
      0.16000000	     -3.26034374	      4.11252712	    176.78507546	     -1.33693420	      1.02645214	     -0.17075774	     -0.48046275	      5.85002230	     -4.82358821	    -14.12831762	     10.72784603	     -1.45346866	     -0.76456456	     -2.64793295	     -5.70667820	    -15.12536045	     13.22303290	     -2.99464690	    -12.79744238	      3.81405307	      3.31871391
      0.17000000	     -3.25972642	      4.11116779	    176.78524991	     -1.33695031	      1.02644832	     -0.17078491	     -0.48059871	      5.85034807	     -4.82357411	    -14.12852699	     10.72786937	     -1.45350323	     -0.76486102	     -2.64838289	     -5.70668918	    -15.12551028	     13.22304479	     -2.99468206	    -12.79771351	      3.81461194	      3.31859222
      0.18000000	     -3.26129142	      4.11301092	    176.79030522	     -1.33696719	      1.02644439	     -0.17080701	     -0.48092075	      5.85445277	     -4.82241228	    -14.13436370	     10.73190465	     -1.45727457	     -0.76655272	     -2.65286190	     -5.70774636	    -15.12608815	     13.22458152	     -2.99703798	    -12.80081118	      3.82021505	      3.30473930
      0.19000000	     -3.26057608	      4.11167067	    176.79244331	     -1.33698788	      1.02644147	     -0.17083129	     -0.48130293	      5.85486338	     -4.82262688	    -14.13434784	     10.73214115	     -1.45762344	     -0.76659583	     -2.65320901	     -5.70763844	    -15.12579684	     13.22483064	     -2.99721226	    -12.80131495	      3.82056668	      3.30489752
      0.20000000	     -3.25991229	      4.11007073	    176.79644138	     -1.33701479	      1.02643775	     -0.17085632	     -0.48201119	      5.85541836	     -4.82302641	    -14.13491245	     10.73260081	     -1.45822254	     -0.76720658	     -2.65375221	     -5.70748968	    -15.12478059	     13.22532629	     -2.99737559	    -12.80108895	      3.82062577	      3.30441061
      0.21000000	     -3.26089851	      4.10736616	    176.80685538	     -1.33705725	      1.02643625	     -0.17086931	     -0.48647627	      5.85392524	     -4.83641679	    -14.13329576	     10.73954413	     -1.46559962	     -0.77334257	     -2.65205001	     -5.69611957	    -15.11614645	     13.23012782	     -2.99765402	    -12.79978799	      3.82172516	      3.28712269
      0.22000000	     -3.26036350	      4.10586091	    176.81088949	     -1.33708899	      1.02643379	     -0.17089531	     -0.48740285	      5.85448149	     -4.83688768	    -14.13434027	     10.73955180	     -1.46601878	     -0.77407151	     -2.65261001	     -5.69584829	    -15.11588836	     13.22998874	     -2.99762044	    -12.79949537	      3.82099921	      3.28779945
      0.23000000	     -3.25966732	      4.10406485	    176.81571998	     -1.33712838	      1.02643029	     -0.17092315	     -0.48888550	      5.85509637	     -4.83886701	    -14.13499044	     10.74029413	     -1.46675253	     -0.77605915	     -2.65307560	     -5.69542535	    -15.11404938	     13.23020120	     -2.99739208	    -12.79788476	      3.82038710	      3.28726448
      0.24000000	     -3.25915977	      4.10151354	    176.82284399	     -1.33718126	      1.02642799	     -0.17094319	     -0.49438651	      5.85388198	     -4.85347724	    -14.12913430	     10.74681298	     -1.47067308	     -0.78272978	     -2.65142733	     -5.68902647	    -15.10350747	     13.23173222	     -2.99554334	    -12.79444939	      3.82038712	      3.27869123
      0.25000000	     -3.25889292	      4.09985888	    176.82739281	     -1.33722387	      1.02642475	     -0.17097285	     -0.49637718	      5.85457141	     -4.85384702	    -14.13052214	     10.74700901	     -1.47106555	     -0.78412938	     -2.65211755	     -5.68832486	    -15.10401996	     13.23155203	     -2.99535970	    -12.79314178	      3.81936689	      3.27923145
      0.26000000	     -3.25843521	      4.09806088	    176.83302511	     -1.33727061	      1.02642003	     -0.17100367	     -0.49980196	      5.85541015	     -4.85585466	    -14.12971268	     10.74823807	     -1.47178105	     -0.78575747	     -2.65260745	     -5.68703604	    -15.10334790	     13.23155254	     -2.99491768	    -12.79104353	      3.81795634	      3.27944797
      0.27000000	     -3.25821059	      4.09609322	    176.83965613	     -1.33732499	      1.02641714	     -0.17103350	     -0.50564606	      5.85617176	     -4.86030688	    -14.12547095	     10.75092011	     -1.47304778	     -0.78807469	     -2.65269864	     -5.68421538	    -15.10203410	     13.23169973	     -2.99395587	    -12.78757411	      3.81616746	      3.27898565
      0.28000000	     -3.26085800	      4.09301990	    176.85062381	     -1.33738052	      1.02641890	     -0.17104777	     -0.52031447	      5.85436109	     -4.87705692	    -14.10819864	     10.75911060	     -1.47852477	     -0.79464611	     -2.65002844	     -5.66919182	    -15.09828573	     13.23204201	     -2.98905878	    -12.78931397	      3.81608617	      3.26945651
      0.29000000	     -3.26102668	      4.09159348	    176.85530691	     -1.33743041	      1.02641449	     -0.17108548	     -0.52300604	      5.85586076	     -4.87724770	    -14.11079474	     10.75877543	     -1.47894610	     -0.79671656	     -2.65144620	     -5.66858760	    -15.09892849	     13.23190872	     -2.98865834	    -12.78759162	      3.81414834	      3.26952775
      0.30000000	     -3.26137618	      4.09000018	    176.86043349	     -1.33748068	      1.02641109	     -0.17112220	     -0.52728158	      5.85685352	     -4.87969416	    -14.10992053	     10.75958000	     -1.47993390	     -0.79937923	     -2.65265922	     -5.66678481	    -15.09941303	     13.23213357	     -2.98760767	    -12.78671233	      3.81207272	      3.26906012
      0.31000000	     -3.25977001	      4.08846950	    176.86072842	     -1.33752018	      1.02640711	     -0.17115608	     -0.52794907	      5.85739320	     -4.87988463	    -14.11011503	     10.75962277	     -1.47996963	     -0.79987375	     -2.65283583	     -5.66667775	    -15.09967537	     13.23214318	     -2.98756268	    -12.78731932	      3.81249767	      3.26907669
      0.32000000	     -3.28030195	      4.08633336	    176.88273913	     -1.33759198	      1.02643258	     -0.17117006	     -0.56199159	      5.85660265	     -4.90960053	    -14.09548359	     10.77239009	     -1.49374388	     -0.82597251	     -2.65166035	     -5.64383406	    -15.09525478	     13.23565406	     -2.97296153	    -12.80708365	      3.81073608	      3.24721888
